<?xml version="1.0" encoding="iso-8859-1"?>
<!-- Generator: Adobe Illustrator 19.0.0, SVG Export Plug-In . SVG Version: 6.00 Build 0)  -->
<svg version="1.1" id="Capa_1" xmlns="http://www.w3.org/2000/svg" xmlns:xlink="http://www.w3.org/1999/xlink" x="0px" y="0px"
	 viewBox="0 0 480 480" style="enable-background:new 0 0 480 480;" xml:space="preserve">
<g>
	<path style="fill:#E8EDED;" d="M88,152c0-4.512,0.272-8.96,0.672-13.368C88.256,143.04,88,147.488,88,152z"/>
	<path style="fill:#E8EDED;" d="M89.656,131.288c0.24-1.688,0.472-3.384,0.768-5.048C90.12,127.904,89.912,129.6,89.656,131.288z"/>
	<path style="fill:#E8EDED;" d="M371.432,116.592c-0.16-0.624-0.312-1.256-0.48-1.88
		C371.12,115.344,371.272,115.968,371.432,116.592z"/>
	<path style="fill:#E8EDED;" d="M376,152c0-4.512-0.256-8.96-0.672-13.368C375.728,143.04,376,147.488,376,152z"/>
	<path style="fill:#E8EDED;" d="M374.344,131.288c-0.248-1.688-0.464-3.384-0.768-5.048
		C373.872,127.904,374.096,129.6,374.344,131.288z"/>
	<path style="fill:#E8EDED;" d="M92.568,116.592c0.16-0.624,0.312-1.256,0.48-1.88C92.88,115.344,92.728,115.968,92.568,116.592z"/>
</g>
<g>
	<path style="fill:#CBF3F0;" d="M40,184h51.688C89.352,173.696,88,163.016,88,152c0-4.512,0.256-8.96,0.672-13.368
		c0.232-2.48,0.632-4.904,0.984-7.352c0.248-1.688,0.464-3.384,0.768-5.048c0.592-3.264,1.336-6.456,2.136-9.64
		c0.16-0.624,0.312-1.256,0.48-1.88c0.976-3.632,2.072-7.2,3.32-10.72H40c-22.088,0-40,17.912-40,40S17.912,184,40,184z"/>
	<path style="fill:#CBF3F0;" d="M371.432,116.592c0.808,3.184,1.544,6.376,2.136,9.64c0.312,1.664,0.52,3.368,0.768,5.048
		c0.352,2.44,0.752,4.872,0.984,7.352c0.424,4.408,0.68,8.856,0.68,13.368c0,11.016-1.352,21.696-3.688,32H448v-80h-80.368
		c1.248,3.512,2.344,7.08,3.32,10.72C371.12,115.344,371.272,115.968,371.432,116.592z"/>
</g>
<g>
	<path style="fill:#E8EDED;" d="M88.672,138.632c0.24-2.48,0.616-4.912,0.984-7.352C89.304,133.728,88.904,136.152,88.672,138.632z"
		/>
	<path style="fill:#E8EDED;" d="M96.368,104L96.368,104c-1.248,3.512-2.344,7.08-3.32,10.72
		C94.032,111.096,95.128,107.512,96.368,104z"/>
	<path style="fill:#E8EDED;" d="M90.432,126.232c0.608-3.248,1.32-6.464,2.136-9.64C91.76,119.776,91.016,122.976,90.432,126.232z"
		/>
	<path style="fill:#E8EDED;" d="M375.328,138.632c-0.232-2.48-0.632-4.904-0.984-7.352
		C374.704,133.72,375.088,136.16,375.328,138.632z"/>
	<path style="fill:#E8EDED;" d="M373.568,126.232c-0.592-3.264-1.336-6.456-2.136-9.64
		C372.248,119.768,372.968,122.984,373.568,126.232z"/>
	<path style="fill:#E8EDED;" d="M370.952,114.72c-0.976-3.632-2.072-7.2-3.32-10.72l0,0
		C368.872,107.512,369.968,111.096,370.952,114.72z"/>
</g>
<circle style="fill:#FFBF69;" cx="232" cy="152" r="152"/>
<circle style="fill:#FF9F1C;" cx="232" cy="152" r="128"/>
<g>
	<path style="fill:#666666;" d="M248,160h-56c-4.424,0-8-3.576-8-8V72c0-4.424,3.576-8,8-8h56c26.472,0,48,21.528,48,48
		S274.472,160,248,160z M200,144h48c17.648,0,32-14.352,32-32s-14.352-32-32-32h-48V144z"/>
	<rect x="200" y="48" style="fill:#666666;" width="16" height="24"/>
	<rect x="232" y="48" style="fill:#666666;" width="16" height="24"/>
	<rect x="112" y="144" style="fill:#666666;" width="16" height="16"/>
	<rect x="336" y="144" style="fill:#666666;" width="16" height="16"/>
	<path style="fill:#666666;" d="M296.04,192.8l-0.76-7.576C292.12,170.584,279.032,160,264,160h-64v24h-16v-32c0-4.424,3.576-8,8-8
		h72c22.736,0,42.512,16.152,47.032,38.408c0.056,0.264,0.096,0.52,0.128,0.8l0.808,8L296.04,192.8z"/>
</g>
<path style="fill:#60C4C2;" d="M40,184c-22.088,0-40-17.912-40-40v296c0,22.088,17.912,40,40,40h408V184H40z"/>
<polygon style="fill:#FFBF69;" points="312,288 280,328 312,368 368,368 368,288 "/>
<rect x="368" y="264" style="fill:#FF9F1C;" width="32" height="128"/>
<path style="fill:#FFBF69;" d="M448,288h-48v80h48c17.672,0,32-14.328,32-32v-80C480,273.672,465.672,288,448,288z"/>
<path style="fill:#FF9F1C;" d="M448,224v64c17.672,0,32-14.328,32-32S465.672,224,448,224z"/>
<g>
	<rect x="32" y="344" style="fill:#CBF3F0;" width="16" height="136"/>
	<rect x="32" y="312" style="fill:#CBF3F0;" width="16" height="16"/>
	<rect x="32" y="280" style="fill:#CBF3F0;" width="16" height="16"/>
	<rect x="32" y="248" style="fill:#CBF3F0;" width="16" height="16"/>
	<rect x="400" y="440" style="fill:#CBF3F0;" width="16" height="16"/>
</g>
<g>
</g>
<g>
</g>
<g>
</g>
<g>
</g>
<g>
</g>
<g>
</g>
<g>
</g>
<g>
</g>
<g>
</g>
<g>
</g>
<g>
</g>
<g>
</g>
<g>
</g>
<g>
</g>
<g>
</g>
</svg>
